<?xml version="1.0" encoding="utf-8"?>
<!-- Generator: Adobe Illustrator 18.1.0, SVG Export Plug-In . SVG Version: 6.00 Build 0)  -->
<!DOCTYPE svg PUBLIC "-//W3C//DTD SVG 1.1//EN" "http://www.w3.org/Graphics/SVG/1.1/DTD/svg11.dtd">
<svg version="1.1" id="Layer_1" xmlns="http://www.w3.org/2000/svg" xmlns:xlink="http://www.w3.org/1999/xlink" x="0px" y="0px"
	 viewBox="0 0 600 250" enable-background="new 0 0 600 250" xml:space="preserve">
<g>
	<circle fill="#F08934" cx="216.5" cy="104.3" r="17.6"/>
	<g>
		<path fill="#DCE4E2" d="M509.2,182.8c0,1.6-1.5,2.9-3.3,2.9h-9.7c-1.8,0-3.3-1.3-3.3-2.9v-1.5c0-1.6,1.5-2.9,3.3-2.9h9.7
			c1.8,0,3.3,1.3,3.3,2.9V182.8z"/>
		<path fill="#DCE4E2" d="M505.6,178.7c0,0.9-0.8,1.6-1.8,1.6h-4.7c-1,0-1.8-0.7-1.8-1.6v-0.8c0-0.9,0.8-1.6,1.8-1.6h4.7
			c1,0,1.8,0.7,1.8,1.6V178.7z"/>
	</g>
	<path fill="#FFFFFF" d="M550,189.7c0,6.1-5.5,11-12.3,11H62.3c-6.8,0-12.3-4.9-12.3-11v-5.5c0-6.1,5.5-11,12.3-11h475.4
		c6.8,0,12.3,4.9,12.3,11V189.7z"/>
	<path fill="#FFFFFF" d="M509.2,177.6c0,6.1-5.5,11-12.3,11H93.5c-6.8,0-12.3-4.9-12.3-11v-5.5c0-6.1,5.5-11,12.3-11h403.4
		c6.8,0,12.3,4.9,12.3,11V177.6z"/>
	<g>
		<g>
			<path fill="#FFFFFF" d="M521.1,119.9c0-3-2.4-5.4-5.4-5.4h-18.3c-3,0-5.4,2.4-5.4,5.4l0,0c0,3,2.4,5.4,5.4,5.4h18.3
				C518.7,125.3,521.1,122.9,521.1,119.9L521.1,119.9z"/>
			<path fill="#FFFFFF" d="M513.3,118.1c0-4-3.2-7.2-7.2-7.2h-11.2c-4,0-7.2,3.2-7.2,7.2l0,0c0,4,3.2,7.2,7.2,7.2h11.2
				C510.1,125.3,513.3,122.1,513.3,118.1L513.3,118.1z"/>
			<circle fill="#FFFFFF" cx="504.8" cy="114" r="9.8"/>
		</g>
		<g>
			<path fill="none" stroke="#FFFFFF" stroke-width="0.7837" stroke-linecap="round" stroke-miterlimit="10" d="M510.6,128.7
				c1.7,0,3.1,1.4,3.1,3.1c0,1.7-1.4,3.1-3.1,3.1c-1.7,0-3.1-1.4-3.1-3.1v-11.6"/>
			<path fill="none" stroke="#FFFFFF" stroke-width="0.7837" stroke-linecap="round" stroke-miterlimit="10" d="M498.2,128.7
				c-1.7,0-3.1,1.4-3.1,3.1c0,1.7,1.4,3.1,3.1,3.1c1.7,0,3.1-1.4,3.1-3.1v-11.6"/>
			<path fill="none" stroke="#FFFFFF" stroke-width="0.7837" stroke-linecap="round" stroke-miterlimit="10" d="M507.4,135.5
				c1.7,0,3.1,1.4,3.1,3.1c0,1.7-1.4,3.1-3.1,3.1c-1.7,0-3.1-1.4-3.1-3.1v-18.5"/>
		</g>
	</g>
	<g>
		<path fill="#FFFFFF" d="M265.1,85.4c0-2.5-2.1-4.6-4.6-4.6h-15.7c-2.5,0-4.6,2.1-4.6,4.6l0,0c0,2.5,2.1,4.6,4.6,4.6h15.7
			C263,90,265.1,88,265.1,85.4L265.1,85.4z"/>
		<path fill="#FFFFFF" d="M258.4,83.9c0-3.4-2.8-6.2-6.2-6.2h-9.6c-3.4,0-6.2,2.8-6.2,6.2l0,0c0,3.4,2.8,6.2,6.2,6.2h9.6
			C255.7,90,258.4,87.3,258.4,83.9L258.4,83.9z"/>
		<circle fill="#FFFFFF" cx="251.1" cy="80.3" r="8.4"/>
	</g>
	<g>
		<path fill="#FFFFFF" d="M299.1,103.3c0-3.4-2.7-6.1-6.1-6.1H272c-3.4,0-6.1,2.7-6.1,6.1l0,0c0,3.4,2.7,6.1,6.1,6.1H293
			C296.4,109.4,299.1,106.7,299.1,103.3L299.1,103.3z"/>
		<path fill="#FFFFFF" d="M290.2,101.2c0-4.5-3.7-8.2-8.2-8.2h-12.9c-4.5,0-8.2,3.7-8.2,8.2l0,0c0,4.5,3.7,8.2,8.2,8.2h12.9
			C286.5,109.4,290.2,105.8,290.2,101.2L290.2,101.2z"/>
		<path fill="#FFFFFF" d="M291.7,96.5c0,6.2-5,11.2-11.2,11.2c-6.2,0-11.2-5-11.2-11.2c0-6.2,5-11.2,11.2-11.2
			C286.6,85.3,291.7,90.3,291.7,96.5z"/>
	</g>
	<g>
		<g>
			<polygon fill="#BECDDB" points="154.8,160.5 105.8,160.5 130.4,105.7 			"/>
			<polygon fill="#9EBAC4" points="130.4,160.5 130.4,105.7 105.8,160.5 			"/>
		</g>
		<g>
			<g>
				<polygon fill="#77B89A" points="180.1,160.5 124.2,160.5 152.3,87.9 				"/>
			</g>
			<g>
				<polygon opacity="0.5" fill="#61A87E" points="152.3,160.5 124.2,160.5 152.3,87.9 				"/>
			</g>
		</g>
		<g>
			<g>
				<polygon fill="#DDE5E3" points="477,160.5 448,160.5 462.6,110.2 				"/>
			</g>
			<g>
				<polygon opacity="0.5" fill="#CFDBDC" points="462.6,160.5 448,160.5 462.6,110.2 				"/>
			</g>
		</g>
		<g>
			<g>
				<polygon fill="#DDE5E3" points="217.3,160.5 180.5,160.5 199,80.2 				"/>
			</g>
			<g opacity="0.5">
				<polygon opacity="0.5" fill="#CFDBDC" points="199,160.5 180.5,160.5 199,80.2 				"/>
			</g>
		</g>
		<g>
			<g>
				<polygon fill="#C9DEBB" points="208.9,160.5 156,160.5 182.5,121.7 				"/>
			</g>
			<polygon fill="#A3CAA6" points="182.5,160.5 156,160.5 182.5,121.7 			"/>
		</g>
		<g>
			<g>
				<polygon fill="#B7A37F" points="230.4,160.5 208.6,160.5 219.6,136.9 				"/>
			</g>
			<polygon fill="#9A8164" points="219.6,160.5 208.6,160.5 219.6,136.9 			"/>
		</g>
		<g>
			<polygon fill="#BECDDB" points="458.9,160.5 438.2,160.5 448.6,142.6 			"/>
			<polygon opacity="0.5" fill="#CFDBDC" points="448.6,160.5 448.6,142.6 438.2,160.5 			"/>
		</g>
		<polygon opacity="0.75" fill="#FFFFFF" points="152.3,87.9 140.5,118.2 163.9,118.2 		"/>
	</g>
	<g>
		<g>
			<rect x="386.1" y="31.2" fill="#7B6730" width="8.1" height="166.4"/>
			<polygon fill="#7B6730" points="425.1,103.7 419.4,98 394.1,123.3 394.1,134.7 			"/>
			<polygon fill="#7B6730" points="355.5,103.7 361.2,98 386.4,123.3 386.4,134.7 			"/>
			<polygon fill="#7B6730" points="425.1,70.1 419.4,64.4 394.1,89.7 394.1,101.1 			"/>
			<polygon fill="#7B6730" points="374.6,46.2 368.9,51.9 386.1,69.1 386.1,57.7 			"/>
		</g>
		<path fill="#BFD063" d="M417.8,58.8c0,3.7-3,6.7-6.7,6.7c-3.7,0-6.7-3-6.7-6.7c0-3.7,3-6.7,6.7-6.7C414.8,52,417.8,55,417.8,58.8z
			"/>
		<circle fill="#88AD38" cx="392.9" cy="62" r="6.7"/>
		<path fill="#BFD063" d="M394.3,53.1c0,3.7-3,6.7-6.7,6.7c-3.7,0-6.7-3-6.7-6.7c0-3.7,3-6.7,6.7-6.7
			C391.3,46.4,394.3,49.4,394.3,53.1z"/>
		<circle fill="#ADC344" cx="421.5" cy="67.5" r="9.3"/>
		<path fill="#9DB221" d="M429,106.8c0,7.7-6.2,13.9-13.9,13.9c-7.7,0-13.9-6.2-13.9-13.9c0-7.7,6.2-13.9,13.9-13.9
			C422.7,92.9,429,99.1,429,106.8z"/>
		<path fill="#BFD063" d="M365.2,101c0,9.5-7.7,17.2-17.2,17.2c-9.5,0-17.2-7.7-17.2-17.2c0-9.5,7.7-17.3,17.2-17.3
			C357.4,83.8,365.2,91.5,365.2,101z"/>
		<circle fill="#BFD063" cx="435.2" cy="107.9" r="6.7"/>
		<circle fill="#88AD38" cx="362.8" cy="88.9" r="9.3"/>
		<path fill="#ADC344" d="M393.9,114.4c0,5.1-4.2,9.3-9.3,9.3c-5.1,0-9.3-4.2-9.3-9.3c0-5.1,4.2-9.3,9.3-9.3
			C389.8,105.1,393.9,109.3,393.9,114.4z"/>
		<path fill="#ADC344" d="M430.8,100.3c0,5.1-4.2,9.3-9.3,9.3c-5.1,0-9.3-4.2-9.3-9.3c0-5.1,4.2-9.3,9.3-9.3
			C426.6,91,430.8,95.1,430.8,100.3z"/>
		<g>
			<circle fill="#9DB221" cx="391.4" cy="185.8" r="13.5"/>
			<circle fill="#BFD063" cx="401.3" cy="194.4" r="6.4"/>
			<circle fill="#88AD38" cx="390.9" cy="198.4" r="4.8"/>
		</g>
	</g>
	<g>
		<g>
			<rect x="351.4" y="136.5" fill="#7B6730" width="3.7" height="57.7"/>
			<polygon fill="#7B6730" points="337.1,150.8 339.8,148.1 351.4,159.8 351.4,165.1 			"/>
			<polygon fill="#7B6730" points="369.3,160.9 366.7,158.3 355,170 355,175.2 			"/>
			<polygon fill="#7B6730" points="360.5,134.3 363.1,137 355.2,144.9 355.2,139.7 			"/>
		</g>
		<circle fill="#88AD38" cx="352" cy="141.6" r="3.1"/>
		<circle fill="#BFD063" cx="354.5" cy="137.5" r="3.1"/>
		<circle fill="#9DB221" cx="341.8" cy="152.2" r="6.4"/>
		<circle fill="#ADC344" cx="367.7" cy="160" r="4.3"/>
		<circle fill="#BFD063" cx="372.8" cy="164.9" r="3.1"/>
		<path fill="#BFD063" d="M329.4,152.7c0,1.7,1.4,3.1,3.1,3.1c1.7,0,3.1-1.4,3.1-3.1c0-1.7-1.4-3.1-3.1-3.1
			C330.8,149.6,329.4,151,329.4,152.7z"/>
		<circle fill="#88AD38" cx="365.9" cy="154.1" r="4.3"/>
		<circle fill="#ADC344" cx="355.8" cy="165.9" r="4.3"/>
		<circle fill="#ADC344" cx="338.8" cy="149.1" r="4.3"/>
		<g>
			<circle fill="#9DB221" cx="353.5" cy="187.2" r="7.9"/>
			<circle fill="#BFD063" cx="347.8" cy="192.3" r="3.8"/>
			<circle fill="#88AD38" cx="353.8" cy="194.6" r="2.8"/>
		</g>
	</g>
	<g>
		<path fill="#FFFFFF" d="M422.8,209.5c0,5.1-4.6,9.2-10.3,9.2H80.2c-5.7,0-10.3-4.1-10.3-9.2v-4.6c0-5.1,4.6-9.2,10.3-9.2h332.3
			c5.7,0,10.3,4.1,10.3,9.2V209.5z"/>
	</g>
</g>
</svg>
