<?xml version="1.0" encoding="utf-8"?>
<!-- Generator: Adobe Illustrator 16.0.0, SVG Export Plug-In . SVG Version: 6.00 Build 0)  -->
<!DOCTYPE svg PUBLIC "-//W3C//DTD SVG 1.1//EN" "http://www.w3.org/Graphics/SVG/1.1/DTD/svg11.dtd">
<svg version="1.1" id="Layer_1" xmlns="http://www.w3.org/2000/svg" xmlns:xlink="http://www.w3.org/1999/xlink" x="0px" y="0px"
	 width="960px" height="560px" viewBox="0 0 960 560" enable-background="new 0 0 960 560" xml:space="preserve">
<g id="Layer_1_1_" display="none">
	<g display="inline">
		<rect x="-53.249" y="170.92" fill="#E4E9E7" width="939.334" height="528.376"/>
		<rect x="-53.249" y="367.593" fill="#FFFFFF" width="939.334" height="331.762"/>
	</g>
	<g display="inline">
		<polygon fill="#ADB0A8" points="511.115,512.485 511.115,491.351 540.587,461.82 535.186,456.419 511.115,480.489 
			511.115,424.775 503.425,424.775 503.425,450.02 492.446,439.041 487.045,444.442 503.425,460.881 503.425,512.133 
			479.706,488.415 474.246,493.875 503.425,522.994 503.425,583.347 511.115,583.347 511.115,523.347 540.587,493.875 
			535.186,488.415 		"/>
		<g>
			<circle fill="#DEE4E1" cx="514.462" cy="576.654" r="9.393"/>
			<circle fill="#DEE4E1" cx="500.431" cy="578.297" r="7.104"/>
			<circle fill="#BDDDE0" cx="508.004" cy="580.235" r="7.925"/>
		</g>
	</g>
	<g display="inline">
		<polygon fill="#ADB0A8" points="792.916,412.211 792.916,388.259 826.321,354.854 820.156,348.688 792.916,375.93 
			792.916,312.936 784.227,312.936 784.227,341.468 771.84,329.08 765.675,335.186 784.227,353.797 784.227,411.801 
			757.397,384.971 751.232,391.135 784.227,424.129 784.227,492.407 792.916,492.407 792.916,424.481 826.321,391.135 
			820.156,384.971 		"/>
		<g>
			<circle fill="#DEE4E1" cx="796.732" cy="484.833" r="10.626"/>
			<path fill="#DEE4E1" d="M788.924,486.712c0,4.462-3.581,8.044-8.043,8.044s-8.043-3.582-8.043-8.044s3.581-8.043,8.043-8.043
				S788.924,482.31,788.924,486.712z"/>
			<path fill="#BDDDE0" d="M798.376,488.943c0,4.99-4.051,8.982-8.982,8.982c-4.99,0-8.982-4.051-8.982-8.982
				c0-4.99,4.051-8.982,8.982-8.982C794.384,479.961,798.376,483.953,798.376,488.943z"/>
		</g>
	</g>
	<g display="inline">
		<polygon fill="#ADB0A8" points="79.139,465.401 79.139,451.135 99.041,431.174 95.401,427.534 79.139,443.797 79.139,406.164 
			73.973,406.164 73.973,423.189 66.575,415.793 62.877,419.491 73.973,430.528 73.973,465.166 57.945,449.139 54.247,452.838 
			73.973,472.505 73.973,513.248 79.139,513.248 79.139,472.739 99.041,452.838 95.401,449.139 		"/>
		<g>
			<circle fill="#DEE4E1" cx="81.429" cy="508.728" r="6.34"/>
			<circle fill="#DEE4E1" cx="71.977" cy="509.843" r="4.814"/>
			<path fill="#BDDDE0" d="M82.368,511.193c0,2.936-2.407,5.343-5.343,5.343s-5.342-2.407-5.342-5.343
				c0-2.935,2.407-5.342,5.342-5.342C80.02,505.793,82.368,508.199,82.368,511.193z"/>
		</g>
	</g>
</g>
<g id="Layer_2">
	<polygon fill="#4D7F60" points="181.35,367.593 83.483,367.593 132.563,245.303 	"/>
	<polygon opacity="0.5" fill="#4D7F60" enable-background="new    " points="132.563,367.593 83.483,367.593 132.563,245.303 	"/>
	<polygon fill="#77B89A" points="301.115,367.593 110.959,367.593 206.36,241.194 	"/>
	<polygon opacity="0.5" fill="#61A87E" enable-background="new    " points="206.36,367.593 110.959,367.593 206.36,241.194 	"/>
	<polygon opacity="0.75" fill="#FFFFFF" enable-background="new    " points="206.36,241.194 184.932,269.608 227.671,269.608 	"/>
	<polygon fill="#D1CEB2" points="306.869,367.593 232.133,367.593 269.648,204.677 	"/>
	<polygon opacity="0.5" fill="#AFAD96" enable-background="new    " points="269.648,367.593 232.133,367.593 269.648,204.677 	"/>
	<polygon fill="#77B89A" points="111.311,367.593 11.918,367.593 61.761,256.282 	"/>
	<polygon fill="#61A87E" points="61.761,367.593 61.761,256.282 11.918,367.593 	"/>
	<polygon fill="#77B89A" points="162.857,367.593 49.256,367.593 106.262,220.235 	"/>
	<polygon opacity="0.5" fill="#61A87E" enable-background="new    " points="106.262,367.593 49.256,367.593 106.262,220.235 	"/>
	<polygon fill="#77B89A" points="950.665,367.593 891.957,367.593 921.429,265.558 	"/>
	<polygon opacity="0.5" fill="#61A87E" enable-background="new    " points="921.429,367.593 891.957,367.593 921.429,265.558 	"/>
	<polygon fill="#C9DEBB" points="240.587,367.593 133.033,367.593 186.986,288.924 	"/>
	<polygon fill="#A3CAA6" points="186.986,367.593 133.033,367.593 186.986,288.924 	"/>
	<polygon opacity="0.75" fill="#FFFFFF" enable-background="new    " points="186.986,288.924 170.313,313.229 203.601,313.229 	"/>
	<polygon fill="#77B89A" points="333.464,367.593 289.139,367.593 311.39,319.687 	"/>
	<polygon opacity="0.5" fill="#61A87E" enable-background="new    " points="311.39,367.593 289.139,367.593 311.39,319.687 	"/>
	<polygon fill="#C9DEBB" points="913.973,367.593 871.938,367.593 893.072,331.37 	"/>
	<polygon fill="#A3CAA6" points="893.072,367.593 893.072,331.37 871.938,367.593 	"/>
</g>
</svg>
