<?xml version="1.0" encoding="utf-8"?>
<!-- Generator: Adobe Illustrator 17.1.0, SVG Export Plug-In . SVG Version: 6.00 Build 0)  -->
<!DOCTYPE svg PUBLIC "-//W3C//DTD SVG 1.1//EN" "http://www.w3.org/Graphics/SVG/1.1/DTD/svg11.dtd">
<svg version="1.1" id="Layer_1" xmlns="http://www.w3.org/2000/svg" xmlns:xlink="http://www.w3.org/1999/xlink" x="0px" y="0px"
	 viewBox="0 0 612 792" enable-background="new 0 0 612 792" xml:space="preserve">
<g id="Layer_1_1_" display="none">
	<g display="inline">
		<rect x="-33.9" y="326.5" fill="#E4E9E7" width="598.8" height="336.8"/>
		<rect x="-33.9" y="451.8" fill="#FFFFFF" width="598.8" height="211.5"/>
	</g>
	<g display="inline">
		<polygon fill="#ADB0A8" points="325.8,544.2 325.8,530.7 344.6,511.9 341.2,508.5 325.8,523.8 325.8,488.3 320.9,488.3 
			320.9,504.4 313.9,497.4 310.5,500.8 320.9,511.3 320.9,544 305.8,528.9 302.3,532.3 320.9,550.9 320.9,589.4 325.8,589.4 
			325.8,551.1 344.6,532.3 341.2,528.9 		"/>
		<g>
			<circle fill="#DEE4E1" cx="328" cy="585.1" r="6"/>
			<circle fill="#DEE4E1" cx="319" cy="586.2" r="4.5"/>
			<circle fill="#BDDDE0" cx="323.9" cy="587.4" r="5.1"/>
		</g>
	</g>
	<g display="inline">
		<polygon fill="#ADB0A8" points="505.5,480.3 505.5,465 526.8,443.7 522.8,439.8 505.5,457.2 505.5,417 499.9,417 499.9,435.2 
			492,427.3 488.1,431.2 499.9,443 499.9,480 482.8,462.9 478.9,466.8 499.9,487.9 499.9,531.4 505.5,531.4 505.5,488.1 
			526.8,466.8 522.8,462.9 		"/>
		<g>
			<circle fill="#DEE4E1" cx="507.9" cy="526.6" r="6.8"/>
			<path fill="#DEE4E1" d="M502.9,527.8c0,2.8-2.3,5.1-5.1,5.1c-2.8,0-5.1-2.3-5.1-5.1s2.3-5.1,5.1-5.1
				C500.7,522.7,502.9,525,502.9,527.8z"/>
			<path fill="#BDDDE0" d="M509,529.2c0,3.2-2.6,5.7-5.7,5.7c-3.2,0-5.7-2.6-5.7-5.7c0-3.2,2.6-5.7,5.7-5.7
				C506.4,523.5,509,526,509,529.2z"/>
		</g>
	</g>
	<g display="inline">
		<polygon fill="#ADB0A8" points="50.5,514.2 50.5,505.1 63.1,492.4 60.8,490.1 50.5,500.4 50.5,476.4 47.2,476.4 47.2,487.3 
			42.4,482.6 40.1,484.9 47.2,492 47.2,514 36.9,503.8 34.6,506.2 47.2,518.7 47.2,544.7 50.5,544.7 50.5,518.9 63.1,506.2 
			60.8,503.8 		"/>
		<g>
			<circle fill="#DEE4E1" cx="51.9" cy="541.8" r="4"/>
			<circle fill="#DEE4E1" cx="45.9" cy="542.5" r="3.1"/>
			<path fill="#BDDDE0" d="M52.5,543.4c0,1.9-1.5,3.4-3.4,3.4s-3.4-1.5-3.4-3.4c0-1.9,1.5-3.4,3.4-3.4
				C51,539.9,52.5,541.5,52.5,543.4z"/>
		</g>
	</g>
</g>
<g id="Layer_2">
	<polygon fill="#4D7F60" points="115.6,451.8 53.2,451.8 84.5,373.9 	"/>
	<polygon opacity="0.5" fill="#4D7F60" points="84.5,451.8 53.2,451.8 84.5,373.9 	"/>
	<polygon fill="#77B89A" points="192,451.8 70.7,451.8 131.6,371.3 	"/>
	<polygon opacity="0.5" fill="#61A87E" points="131.6,451.8 70.7,451.8 131.6,371.3 	"/>
	<polygon opacity="0.75" fill="#FFFFFF" enable-background="new    " points="131.6,371.3 117.9,389.4 145.1,389.4 	"/>
	<polygon fill="#C9DEBB" points="195.6,451.8 148,451.8 171.9,348 	"/>
	<polygon opacity="0.5" fill="#A3CAA6" points="171.9,451.8 148,451.8 171.9,348 	"/>
	<polygon fill="#77B89A" points="71,451.8 7.6,451.8 39.4,380.9 	"/>
	<polygon fill="#61A87E" points="39.4,451.8 39.4,380.9 7.6,451.8 	"/>
	<polygon fill="#77B89A" points="103.8,451.8 31.4,451.8 67.7,357.9 	"/>
	<polygon opacity="0.5" fill="#61A87E" points="67.7,451.8 31.4,451.8 67.7,357.9 	"/>
	<polygon fill="#77B89A" points="606,451.8 568.6,451.8 587.4,386.8 	"/>
	<polygon opacity="0.5" fill="#61A87E" points="587.4,451.8 568.6,451.8 587.4,386.8 	"/>
	<polygon fill="#C9DEBB" points="153.4,451.8 84.8,451.8 119.2,401.7 	"/>
	<polygon fill="#A3CAA6" points="119.2,451.8 84.8,451.8 119.2,401.7 	"/>
	<polygon opacity="0.75" fill="#FFFFFF" enable-background="new    " points="119.2,401.7 108.6,417.2 129.8,417.2 	"/>
	<polygon fill="#77B89A" points="212.6,451.8 184.3,451.8 198.5,421.3 	"/>
	<polygon opacity="0.5" fill="#61A87E" points="198.5,451.8 184.3,451.8 198.5,421.3 	"/>
	<polygon fill="#C9DEBB" points="582.7,451.8 555.9,451.8 569.3,428.7 	"/>
	<polygon fill="#A3CAA6" points="569.3,451.8 569.3,428.7 555.9,451.8 	"/>
</g>
</svg>
