<?xml version="1.0" encoding="utf-8"?>
<!-- Generator: Adobe Illustrator 17.1.0, SVG Export Plug-In . SVG Version: 6.00 Build 0)  -->
<!DOCTYPE svg PUBLIC "-//W3C//DTD SVG 1.1//EN" "http://www.w3.org/Graphics/SVG/1.1/DTD/svg11.dtd">
<svg version="1.1" xmlns="http://www.w3.org/2000/svg" xmlns:xlink="http://www.w3.org/1999/xlink" x="0px" y="0px"
	 viewBox="0 0 1635.2 324" enable-background="new 0 0 1635.2 324" xml:space="preserve">
<g id="Layer_1" display="none">
	<g display="inline">
		<rect x="-90.7" y="-23.8" fill="#E4E9E7" width="1600" height="900"/>
		<rect x="-90.7" y="311.2" fill="#FFFFFF" width="1600" height="565.1"/>
	</g>
	<g display="inline">
		<polygon fill="#ADB0A8" points="870.6,558 870.6,522 920.8,471.7 911.6,462.5 870.6,503.5 870.6,408.6 857.5,408.6 857.5,451.6 
			838.8,432.9 829.6,442.1 857.5,470.1 857.5,557.4 817.1,517 807.8,526.3 857.5,575.9 857.5,678.7 870.6,678.7 870.6,576.5 
			920.8,526.3 911.6,517 		"/>
		<g>
			<circle fill="#DEE4E1" cx="876.3" cy="667.3" r="16"/>
			<circle fill="#DEE4E1" cx="852.4" cy="670.1" r="12.1"/>
			<circle fill="#BDDDE0" cx="865.3" cy="673.4" r="13.5"/>
		</g>
	</g>
	<g display="inline">
		<polygon fill="#ADB0A8" points="1350.6,387.2 1350.6,346.4 1407.5,289.5 1397,279 1350.6,325.4 1350.6,218.1 1335.8,218.1 
			1335.8,266.7 1314.7,245.6 1304.2,256 1335.8,287.7 1335.8,386.5 1290.1,340.8 1279.6,351.3 1335.8,407.5 1335.8,523.8 
			1350.6,523.8 1350.6,408.1 1407.5,351.3 1397,340.8 		"/>
		<g>
			<circle fill="#DEE4E1" cx="1357.1" cy="510.9" r="18.1"/>
			<path fill="#DEE4E1" d="M1343.8,514.1c0,7.6-6.1,13.7-13.7,13.7c-7.6,0-13.7-6.1-13.7-13.7c0-7.6,6.1-13.7,13.7-13.7
				C1337.7,500.4,1343.8,506.6,1343.8,514.1z"/>
			<path fill="#BDDDE0" d="M1359.9,517.9c0,8.5-6.9,15.3-15.3,15.3c-8.5,0-15.3-6.9-15.3-15.3c0-8.5,6.9-15.3,15.3-15.3
				C1353.1,502.6,1359.9,509.4,1359.9,517.9z"/>
		</g>
	</g>
	<g display="inline">
		<polygon fill="#ADB0A8" points="134.8,477.8 134.8,453.5 168.7,419.5 162.5,413.3 134.8,441 134.8,376.9 126,376.9 126,405.9 
			113.4,393.3 107.1,399.6 126,418.4 126,477.4 98.7,450.1 92.4,456.4 126,489.9 126,559.3 134.8,559.3 134.8,490.3 168.7,456.4 
			162.5,450.1 		"/>
		<g>
			<circle fill="#DEE4E1" cx="138.7" cy="551.6" r="10.8"/>
			<circle fill="#DEE4E1" cx="122.6" cy="553.5" r="8.2"/>
			<path fill="#BDDDE0" d="M140.3,555.8c0,5-4.1,9.1-9.1,9.1c-5,0-9.1-4.1-9.1-9.1c0-5,4.1-9.1,9.1-9.1
				C136.3,546.6,140.3,550.7,140.3,555.8z"/>
		</g>
	</g>
</g>
<g id="Layer_2">
	<polygon fill="#DEE4E1" points="308.9,311.2 142.2,311.2 225.8,102.9 	"/>
	<polygon fill="#D1DADB" points="225.8,311.2 142.2,311.2 225.8,102.9 	"/>
	<polygon fill="#BFCEDB" points="512.9,311.2 189,311.2 351.5,95.9 	"/>
	<polygon opacity="0.5" fill="#A0BCC5" points="351.5,311.2 189,311.2 351.5,95.9 	"/>
	<polygon opacity="0.75" fill="#FFFFFF" points="351.5,95.9 315,144.3 387.8,144.3 	"/>
	<polygon fill="#DEE4E1" points="522.7,311.2 395.4,311.2 459.3,33.7 	"/>
	<polygon fill="#D1DADB" points="459.3,311.2 395.4,311.2 459.3,33.7 	"/>
	<polygon fill="#BFCEDB" points="189.6,311.2 20.3,311.2 105.2,121.6 	"/>
	<polygon fill="#A0BCC5" points="105.2,311.2 105.2,121.6 20.3,311.2 	"/>
	<polygon fill="#BDDDE0" points="277.4,311.2 83.9,311.2 181,60.2 	"/>
	<polygon opacity="0.5" fill="#BDDDE0" points="181,311.2 83.9,311.2 181,60.2 	"/>
	<polygon fill="#DEE4E1" points="1619.3,311.2 1519.3,311.2 1569.5,137.4 	"/>
	<polygon opacity="0.5" fill="#D1DADB" points="1569.5,311.2 1519.3,311.2 1569.5,137.4 	"/>
	<polygon fill="#BDDDE0" points="409.8,311.2 226.6,311.2 318.5,177.2 	"/>
	<polygon fill="#94CAD6" points="318.5,311.2 226.6,311.2 318.5,177.2 	"/>
	<polygon opacity="0.75" fill="#FFFFFF" points="318.5,177.2 290.1,218.6 346.8,218.6 	"/>
	<polygon fill="#BDDDE0" points="568,311.2 492.5,311.2 530.4,229.6 	"/>
	<polygon fill="#94CAD6" points="530.4,311.2 492.5,311.2 530.4,229.6 	"/>
	<polygon fill="#BFCEDB" points="1556.8,311.2 1485.2,311.2 1521.2,249.5 	"/>
	<polygon opacity="0.5" fill="#D1DADB" points="1521.2,311.2 1521.2,249.5 1485.2,311.2 	"/>
	<polygon opacity="0.75" fill="#FFFFFF" points="181,60.2 140.4,165.1 221.3,165.1 	"/>
</g>
</svg>
