<?xml version="1.0" encoding="utf-8"?>
<!-- Generator: Adobe Illustrator 17.1.0, SVG Export Plug-In . SVG Version: 6.00 Build 0)  -->
<!DOCTYPE svg PUBLIC "-//W3C//DTD SVG 1.1//EN" "http://www.w3.org/Graphics/SVG/1.1/DTD/svg11.dtd">
<svg version="1.1" id="Layer_1" xmlns="http://www.w3.org/2000/svg" xmlns:xlink="http://www.w3.org/1999/xlink" x="0px" y="0px"
	 viewBox="0 0 759 211.5" enable-background="new 0 0 759 211.5" xml:space="preserve">
<g>
	<polygon fill="#ADB0A8" points="286.6,140.8 286.6,128.2 304.2,110.6 300.9,107.4 286.6,121.8 286.6,88.6 282,88.6 282,103.6 
		275.5,97.1 272.2,100.3 282,110.1 282,140.6 267.9,126.5 264.6,129.7 282,147.1 282,183.1 286.6,183.1 286.6,147.3 304.2,129.7 
		300.9,126.5 	"/>
	<g>
		<circle fill="#DEE4E1" cx="288.6" cy="179.1" r="5.6"/>
		<circle fill="#DEE4E1" cx="280.2" cy="180.1" r="4.2"/>
		<circle fill="#BDDDE0" cx="284.7" cy="181.2" r="4.7"/>
	</g>
</g>
<g>
	<polygon fill="#ADB0A8" points="729.2,81.1 729.2,66.8 749.2,46.9 745.5,43.2 729.2,59.4 729.2,21.9 724.1,21.9 724.1,38.9 
		716.7,31.5 713,35.2 724.1,46.2 724.1,80.8 708.1,64.8 704.4,68.5 724.1,88.2 724.1,128.9 729.2,128.9 729.2,88.4 749.2,68.5 
		745.5,64.8 	"/>
	<g>
		<circle fill="#DEE4E1" cx="731.5" cy="124.4" r="6.3"/>
		<circle fill="#DEE4E1" cx="722.1" cy="125.5" r="4.8"/>
		<circle fill="#BDDDE0" cx="727.1" cy="126.8" r="5.4"/>
	</g>
</g>
<g>
	<polygon fill="#ADB0A8" points="29.1,112.8 29.1,104.3 40.9,92.4 38.8,90.2 29.1,99.9 29.1,77.5 26,77.5 26,87.6 21.6,83.2 
		19.4,85.4 26,92 26,112.6 16.4,103.1 14.2,105.3 26,117 26,141.3 29.1,141.3 29.1,117.1 40.9,105.3 38.8,103.1 	"/>
	<g>
		<circle fill="#DEE4E1" cx="30.4" cy="138.6" r="3.8"/>
		<circle fill="#DEE4E1" cx="24.8" cy="139.3" r="2.9"/>
		<circle fill="#BDDDE0" cx="27.8" cy="140.1" r="3.2"/>
	</g>
</g>
</svg>
